# xmcd CD database file
#
# Track frame offsets:
#	150
#	13795
#	29007
#	42653
#
# Disc length: 767 seconds
#
# Revision: 1
# Processed by: cddbd v1.5.1PL0 Copyright (c) Steve Scherf et al.
# Submitted via: CDex 1.51
#
DISCID=3202fd04
DTITLE=中ノ森BAND - whatever
DYEAR=2005
DGENRE=JPop
TTITLE0=whatever
TTITLE1=センチメンタル・プレイス
TTITLE2=whatever -Instrumental-
TTITLE3=センチメンタル・プレイス -Instrumental-
EXTD=YEAR: 2005
EXTT0=
EXTT1=
EXTT2=
EXTT3=
PLAYORDER=
